<svg width="20" height="20" viewBox="0 0 20 20" fill="none" xmlns="http://www.w3.org/2000/svg">
<path d="M19.959 12.2189V19.5979H15.681V12.7129C15.681 10.9829 15.062 9.80288 13.514 9.80288C12.332 9.80288 11.628 10.5989 11.319 11.3679C11.206 11.6429 11.177 12.0259 11.177 12.4109V19.5979H6.897C6.897 19.5979 6.955 7.93788 6.897 6.72888H11.177V8.55288L11.149 8.59488H11.177V8.55288C11.745 7.67788 12.76 6.42688 15.033 6.42688C17.848 6.42688 19.959 8.26688 19.959 12.2189ZM2.421 0.525879C0.958 0.525879 0 1.48588 0 2.74888C0 3.98388 0.93 4.97288 2.365 4.97288H2.393C3.886 4.97288 4.813 3.98388 4.813 2.74888C4.787 1.48588 3.887 0.525879 2.422 0.525879H2.421ZM0.254 19.5979H4.532V6.72888H0.254V19.5979Z" fill="#475569"/>
</svg>
