<svg width="20" height="17" viewBox="0 0 20 17" fill="none" xmlns="http://www.w3.org/2000/svg">
<path d="M20 2.40692C19.2504 2.7343 18.4565 2.94896 17.644 3.04392C18.4968 2.54315 19.138 1.74903 19.448 0.80992C18.64 1.28025 17.7587 1.61152 16.841 1.78992C16.4545 1.38513 15.9897 1.06331 15.4748 0.844098C14.9598 0.624889 14.4056 0.512885 13.846 0.51492C11.58 0.51492 9.743 2.32492 9.743 4.55492C9.743 4.87092 9.779 5.17992 9.849 5.47492C8.22358 5.39761 6.63212 4.98233 5.17617 4.25556C3.72022 3.52879 2.43176 2.5065 1.393 1.25392C1.02883 1.86832 0.837415 2.5697 0.839 3.28392C0.839697 3.95189 1.00683 4.60915 1.32529 5.19631C1.64375 5.78348 2.1035 6.28203 2.663 6.64692C2.01248 6.62592 1.37602 6.45225 0.805 6.13992V6.18992C0.805 8.14792 2.22 9.78092 4.095 10.1529C3.74261 10.2464 3.37958 10.2938 3.015 10.2939C2.75 10.2939 2.493 10.2689 2.242 10.2189C2.51008 11.0268 3.02311 11.7312 3.70982 12.2343C4.39653 12.7373 5.22284 13.014 6.074 13.0259C4.61407 14.1505 2.82182 14.758 0.979 14.7529C0.647 14.7529 0.321 14.7329 0 14.6969C1.88125 15.8876 4.06259 16.5182 6.289 16.5149C13.836 16.5149 17.962 10.3579 17.962 5.01892L17.948 4.49592C18.7529 3.92959 19.4481 3.22177 20 2.40692Z" fill="#475569"/>
</svg>
