<svg width="20" height="15" viewBox="0 0 20 15" fill="none" xmlns="http://www.w3.org/2000/svg">
<path d="M15.812 0.517113H4.145C1.855 0.517113 0 2.35211 0 4.61611V10.3841C0 12.6481 1.856 14.4841 4.145 14.4841H15.812C18.102 14.4841 19.957 12.6481 19.957 10.3841V4.61611C19.957 2.35211 18.101 0.516113 15.812 0.516113V0.517113ZM13.009 7.78011L7.552 10.3551C7.51872 10.3711 7.48192 10.3785 7.44503 10.3765C7.40815 10.3744 7.37237 10.3631 7.34103 10.3436C7.3097 10.324 7.28382 10.2968 7.2658 10.2646C7.24779 10.2323 7.23822 10.1961 7.238 10.1591V4.85011C7.23867 4.81299 7.24872 4.77663 7.26722 4.74444C7.28573 4.71224 7.31208 4.68526 7.34382 4.66599C7.37556 4.64673 7.41167 4.63581 7.44877 4.63425C7.48587 4.6327 7.52276 4.64057 7.556 4.65711L13.014 7.39211C13.0504 7.41024 13.0809 7.43826 13.102 7.47294C13.1232 7.50762 13.1341 7.54756 13.1336 7.58818C13.1331 7.6288 13.1211 7.66845 13.0991 7.70258C13.077 7.7367 13.0458 7.76392 13.009 7.78111V7.78011Z" fill="#475569"/>
</svg>
